<?xml version="1.0" encoding="UTF-8" standalone="no"?>
<!-- Created with Inkscape (http://www.inkscape.org/) -->

<svg
   width="50.9147mm"
   height="50.914711mm"
   viewBox="0 0 50.9147 50.914711"
   version="1.1"
   id="svg1"
   xml:space="preserve"
   inkscape:version="1.4.3 (0d15f75, 2025-12-25)"
   sodipodi:docname="InkRadixLogo.svg"
   inkscape:export-filename="InkRadixLogo.png"
   inkscape:export-xdpi="127.71164"
   inkscape:export-ydpi="127.71164"
   xmlns:inkscape="http://www.inkscape.org/namespaces/inkscape"
   xmlns:sodipodi="http://sodipodi.sourceforge.net/DTD/sodipodi-0.dtd"
   xmlns:xlink="http://www.w3.org/1999/xlink"
   xmlns="http://www.w3.org/2000/svg"
   xmlns:svg="http://www.w3.org/2000/svg"><sodipodi:namedview
     id="namedview1"
     pagecolor="#ffffff"
     bordercolor="#000000"
     borderopacity="0.25"
     inkscape:showpageshadow="2"
     inkscape:pageopacity="0.0"
     inkscape:pagecheckerboard="0"
     inkscape:deskcolor="#d1d1d1"
     inkscape:document-units="mm"
     inkscape:zoom="1.4142136"
     inkscape:cx="-27.930718"
     inkscape:cy="76.013979"
     inkscape:window-width="1920"
     inkscape:window-height="1009"
     inkscape:window-x="1912"
     inkscape:window-y="-8"
     inkscape:window-maximized="1"
     inkscape:current-layer="layer1" /><defs
     id="defs1"><linearGradient
   id="linearGradient95"
   inkscape:collect="always"><stop
     style="stop-color:#1d2165;stop-opacity:1;"
     offset="0"
     id="stop95" /><stop
     style="stop-color:#e9732f;stop-opacity:1;"
     offset="1"
     id="stop96" /></linearGradient><linearGradient
   id="linearGradient90"
   inkscape:collect="always"><stop
     style="stop-color:#1d2165;stop-opacity:1;"
     offset="0"
     id="stop90" /><stop
     style="stop-color:#f57331;stop-opacity:1;"
     offset="1"
     id="stop91" /></linearGradient><linearGradient
   id="linearGradient87"
   inkscape:collect="always"><stop
     style="stop-color:#11175b;stop-opacity:1;"
     offset="0"
     id="stop88" /><stop
     style="stop-color:#ed6d2a;stop-opacity:1;"
     offset="1"
     id="stop89" /></linearGradient><linearGradient
   id="linearGradient68"
   inkscape:collect="always"><stop
     style="stop-color:#11175b;stop-opacity:1;"
     offset="0"
     id="stop68" /><stop
     style="stop-color:#11175b;stop-opacity:1;"
     offset="0.45182374"
     id="stop70" /><stop
     style="stop-color:#9d8037;stop-opacity:1;"
     offset="0.54817551"
     id="stop71" /><stop
     style="stop-color:#ef6e28;stop-opacity:1;"
     offset="1"
     id="stop69" /></linearGradient><linearGradient
   inkscape:collect="always"
   xlink:href="#linearGradient68"
   id="linearGradient79"
   gradientUnits="userSpaceOnUse"
   x1="152.2677"
   y1="94.092445"
   x2="156.716"
   y2="94.092445"
   gradientTransform="translate(-85.425072,2.5153319)" /><linearGradient
   inkscape:collect="always"
   xlink:href="#linearGradient68"
   id="linearGradient80"
   gradientUnits="userSpaceOnUse"
   x1="151.83771"
   y1="96.114845"
   x2="157.146"
   y2="96.114845"
   gradientTransform="rotate(-45,45.74881,101.85951)" /><linearGradient
   inkscape:collect="always"
   xlink:href="#linearGradient68"
   id="linearGradient81"
   gradientUnits="userSpaceOnUse"
   x1="151.10527"
   y1="102.40541"
   x2="157.88853"
   y2="102.40541"
   gradientTransform="rotate(-45,45.74881,101.85951)" /><linearGradient
   inkscape:collect="always"
   xlink:href="#linearGradient87"
   id="linearGradient89"
   x1="68.670715"
   y1="37.679066"
   x2="94.033081"
   y2="28.493643"
   gradientUnits="userSpaceOnUse"
   gradientTransform="translate(55.937791,-6.108464)" /><linearGradient
   inkscape:collect="always"
   xlink:href="#linearGradient90"
   id="linearGradient91"
   x1="165.82378"
   y1="36.132191"
   x2="174.6288"
   y2="30.910252"
   gradientUnits="userSpaceOnUse"
   gradientTransform="matrix(0.89345565,0,0,0.89345565,-6.0811083,-1.5030966)" /><linearGradient
   inkscape:collect="always"
   xlink:href="#linearGradient95"
   id="linearGradient96"
   x1="160.36816"
   y1="43.833458"
   x2="176.30516"
   y2="32.971237"
   gradientUnits="userSpaceOnUse"
   gradientTransform="translate(-23.918571,-5.542497)" />

<linearGradient
   inkscape:collect="always"
   xlink:href="#linearGradient90"
   id="linearGradient98"
   x1="80.601868"
   y1="44.67551"
   x2="96.542351"
   y2="33.83902"
   gradientUnits="userSpaceOnUse"
   gradientTransform="translate(55.844247,-6.3890969)" /></defs><g
     inkscape:label="Layer 1"
     inkscape:groupmode="layer"
     id="layer1"
     transform="translate(-108.38795,-8.7065372)"><rect
       style="fill:#ffffff;fill-opacity:1;stroke:none;stroke-width:0.221511;stroke-linecap:square;stroke-linejoin:miter;stroke-dasharray:none;stroke-opacity:1;paint-order:stroke fill markers"
       id="rect98"
       width="50.9147"
       height="50.914711"
       x="108.38795"
       y="8.7065372"
       ry="13.616725" /><g
       id="g66"
       transform="matrix(1.4453788,0,0,1.4453788,30.679305,-31.016168)"><text
         xml:space="preserve"
         style="font-size:7.05556px;font-family:'Times New Roman';-inkscape-font-specification:'Times New Roman, ';text-align:center;writing-mode:lr-tb;direction:ltr;text-anchor:middle;fill:#0b266b;fill-opacity:1;stroke:none;stroke-width:0.2;stroke-linecap:round;stroke-linejoin:bevel;stroke-opacity:1;paint-order:stroke fill markers"
         x="62.639706"
         y="56.741741"
         id="text64"><tspan
           sodipodi:role="line"
           id="tspan64"
           style="font-style:normal;font-variant:normal;font-weight:bold;font-stretch:normal;font-family:'New Computer Modern Sans 10';-inkscape-font-specification:'New Computer Modern Sans 10 Bold';stroke:none;stroke-width:0.2"
           x="62.639706"
           y="56.741741">Ink</tspan></text><text
         xml:space="preserve"
         style="font-style:normal;font-variant:normal;font-weight:normal;font-stretch:normal;font-size:7.05556px;font-family:'New Computer Modern Sans 10';-inkscape-font-specification:'New Computer Modern Sans 10, ';text-align:center;writing-mode:lr-tb;direction:ltr;text-anchor:middle;fill:#ed6d2a;fill-opacity:1;stroke:none;stroke-width:0.2;stroke-linecap:round;stroke-linejoin:bevel;stroke-opacity:1;paint-order:stroke fill markers"
         x="75.915863"
         y="56.745304"
         id="text65"><tspan
           sodipodi:role="line"
           id="tspan65"
           style="font-style:normal;font-variant:normal;font-weight:bold;font-stretch:normal;font-family:'New Computer Modern Sans 10';-inkscape-font-specification:'New Computer Modern Sans 10 Bold';fill:#ed6d2a;fill-opacity:1;stroke:none;stroke-width:0.2"
           x="75.915863"
           y="56.745304">Radix</tspan></text></g><rect
       style="fill:url(#linearGradient79);fill-opacity:1;stroke:none;stroke-width:0.01;stroke-linecap:round;stroke-linejoin:bevel;stroke-dasharray:none;stroke-opacity:1;paint-order:stroke fill markers"
       id="rect67-7"
       width="4.448307"
       height="1.9182291"
       x="66.842636"
       y="95.648666"
       transform="rotate(-45)" /><path
       style="fill:url(#linearGradient80);fill-opacity:1;stroke:none;stroke-width:0.01;stroke-linecap:round;stroke-linejoin:bevel;stroke-dasharray:none;stroke-opacity:1;paint-order:stroke fill markers"
       d="m 120.45995,19.77383 -1.50547,1.505473 -1.50547,1.505472 -0.74611,-0.0035 -0.004,-0.746111 1.50547,-1.505472 1.50547,-1.505473 0.74611,0.0035 z"
       id="path68-2-6-9"
       sodipodi:nodetypes="ccccccccc" /><path
       style="fill:url(#linearGradient81);fill-opacity:1;stroke:none;stroke-width:0.01;stroke-linecap:round;stroke-linejoin:bevel;stroke-dasharray:none;stroke-opacity:1;paint-order:stroke fill markers"
       d="m 118.3306,22.867831 c 0,0 1.21543,2.116664 1.39733,3.96874 0.95085,0.107494 4.14239,0.339001 5.95312,2.166285 0.13436,0.134357 0.12168,0.128743 0.20808,0.205252 0.12185,0.109114 0.34802,0.116991 0.37849,0.08652 0.0911,-0.09113 0.0282,-0.282999 -0.0612,-0.37068 -0.10616,-0.104751 -3.77706,-3.708612 -3.77706,-3.708612 0,0 -0.52282,0.200733 -0.96358,-0.240028 -0.27321,-0.273205 -0.35483,-0.821092 0.005,-1.187119 0.36593,-0.360278 0.91391,-0.278565 1.18712,-0.0054 0.44076,0.440761 0.24003,0.963582 0.24003,0.963582 0,0 3.60386,3.670895 3.70861,3.77706 0.0878,0.08926 0.27957,0.15229 0.37068,0.06118 0.0609,-0.06088 -0.0234,-0.317526 -0.2921,-0.586241 -1.82729,-1.810738 -2.05879,-5.002279 -2.16629,-5.953125 -1.85207,-0.181903 -3.96874,-1.397332 -3.96874,-1.397332 l -1.10977,1.109776 z"
       id="path68-3"
       sodipodi:nodetypes="cccssscscscssccccc" /><path
       style="fill:url(#linearGradient89);stroke:none;stroke-width:0.01;stroke-linecap:round;stroke-linejoin:bevel;stroke-dasharray:none;stroke-opacity:1;paint-order:stroke fill markers"
       d="m 125.68105,29.002856 c 0,0 -2.78218,0.07072 -4.48857,0.179716 -0.97587,0.06233 -3.87148,0.451174 -4.63922,1.084527 -1.34472,1.109336 -1.99149,2.775412 -0.76101,4.407758 0.89892,1.192494 4.3987,0.429954 5.72989,-0.487826 0.45124,-0.311106 0.9752,-0.634596 1.30146,-0.608249 0.92351,0.07458 1.72317,2.26104 2.07197,3.601348 0.57524,2.210438 1.46292,4.529668 2.55489,4.506185 1.53789,-0.03307 2.19935,-2.662373 2.75332,-4.522722 0.55397,-1.860348 3.16992,-9.84899 3.70781,-11.392477 0.53788,-1.543472 1.20438,-3.285741 4.67721,-3.320813 3.47284,-0.03508 12.20753,-0.07016 13.00266,-0.07016 0.79513,0 0.89695,-0.799386 0.89695,-1.220337 -10e-6,-0.420951 -0.27722,-1.048118 -0.89695,-1.059806 -0.61973,-0.01169 -8.49368,-0.08471 -14.22739,-0.08471 -1.44645,0 -3.88607,0.248046 -5.32475,3.935679 -1.43867,3.687626 -3.86902,11.583852 -4.04441,12.18019 -0.1754,0.596346 -0.3161,1.248234 -0.57588,1.248234 -0.24468,0 -0.97131,-3.383482 -2.03563,-4.730253 -0.52821,-0.668388 -1.27928,-1.381326 -2.05052,-1.525486 -0.6936,-0.129648 -1.47389,0.105186 -2.24856,0.879861 -1.20801,1.208011 -1.8278,1.995095 -2.8364,2.018161 -0.88939,0.02034 -1.71094,-0.397684 -1.92267,-1.106098 -0.2351,-0.786626 -0.0585,-1.70719 1.11084,-2.198297 1.16931,-0.491107 3.63016,-0.816234 5.23848,-0.947133 1.00561,-0.08184 2.98345,-0.03152 3.59273,-0.475191 0.0691,-0.05027 -0.58625,-0.292099 -0.58625,-0.292099 z"
       id="path78-1"
       sodipodi:nodetypes="cssssssssssszsssssasssassscc" /><path
       style="fill:#ddebf4;fill-opacity:1;stroke:url(#linearGradient96);stroke-width:1.56;stroke-linecap:square;stroke-linejoin:miter;stroke-dasharray:none;stroke-opacity:1;paint-order:stroke fill markers"
       id="path89"
       sodipodi:type="arc"
       sodipodi:cx="142.07507"
       sodipodi:cy="33.98074"
       sodipodi:rx="7.0868964"
       sodipodi:ry="7.0868964"
       sodipodi:start="0"
       sodipodi:end="4.712389"
       sodipodi:arc-type="slice"
       d="m 149.16197,33.98074 a 7.0868964,7.0868964 0 0 1 -4.37486,6.547438 7.0868964,7.0868964 0 0 1 -7.72323,-1.536246 7.0868964,7.0868964 0 0 1 -1.53625,-7.72323 7.0868964,7.0868964 0 0 1 6.54744,-4.374859 v 7.086897 z" /><path
       style="fill:#ddebf4;fill-opacity:1;stroke:url(#linearGradient91);stroke-width:1.34018;stroke-linecap:square;stroke-linejoin:miter;stroke-dasharray:none;stroke-opacity:1;paint-order:stroke fill markers"
       id="path89-0"
       d="m 144.17349,25.368538 a 6.3318276,6.3318276 0 0 1 4.50042,1.841798 6.3318276,6.3318276 0 0 1 1.86724,4.489928 h -6.33183 z"
       sodipodi:type="arc"
       sodipodi:arc-type="slice"
       sodipodi:start="4.7067303"
       sodipodi:end="0"
       sodipodi:ry="6.3318276"
       sodipodi:rx="6.3318276"
       sodipodi:cy="31.700264"
       sodipodi:cx="144.20932" /><path
       fill="#1d2165"
       d="m 143.49054,33.201406 c 0.34375,0 0.51563,0.111328 0.51563,0.333984 0,0.296875 -0.20703,0.445313 -0.6211,0.445313 h -1.30957 c -0.13672,0.664062 -0.20508,1.271972 -0.20508,1.82373 0,0.73584 0.11231,1.379761 0.33692,1.931763 0.0488,0.120117 0.0732,0.212158 0.0732,0.276123 0,0.127991 -0.0566,0.241985 -0.16992,0.341984 -0.11133,0.100013 -0.23145,0.15002 -0.36035,0.15002 -0.19922,0 -0.34473,-0.161987 -0.43653,-0.485962 -0.0918,-0.324097 -0.13769,-0.674133 -0.13769,-1.05011 0,-0.544433 0.16406,-1.540283 0.49218,-2.987548 h -1.23632 l -0.66065,2.567871 c -0.0801,0.327637 -0.23194,0.851562 -0.45557,1.571777 -0.1123,0.255981 -0.28027,0.383972 -0.5039,0.383972 -0.25635,0 -0.38452,-0.119995 -0.38452,-0.359985 0,-0.05603 0.032,-0.160098 0.096,-0.312195 0.72851,-1.544189 1.22851,-2.828003 1.5,-3.85144 h -0.61231 c -0.59179,0 -1.07959,0.295898 -1.46338,0.887695 -0.072,0.103515 -0.14807,0.155273 -0.22815,0.155273 -0.032,0 -0.06,-0.0059 -0.0839,-0.01758 -0.0241,-0.01172 -0.0401,-0.02149 -0.048,-0.0293 -0.008,-0.0078 -0.0181,-0.02637 -0.0302,-0.05566 -0.012,-0.02735 -0.022,-0.04492 -0.03,-0.05273 0,-0.07227 0.096,-0.246093 0.28803,-0.521484 0.19214,-0.277344 0.34021,-0.47168 0.44421,-0.583008 0.35157,-0.375 0.7754,-0.5625 1.27149,-0.5625 z"
       id="path90"
       style="fill:url(#linearGradient98);stroke:none;stroke-width:0.21;stroke-dasharray:none;stroke-opacity:1"
       sodipodi:nodetypes="ssscscscscsccccssccscsccccccss" /></g></svg>
